<svg id="Layer_1" data-name="Layer 1" xmlns="http://www.w3.org/2000/svg" viewBox="0 0 76.1 54.14"><defs><style>.cls-1{fill:#231f20;stroke:#231f20;stroke-miterlimit:10;}</style></defs><path class="cls-1" d="M71.89,6.89h-40A17.52,17.52,0,0,0,14.31,24.41V44.56A15.47,15.47,0,0,0,29.78,60H74A15.47,15.47,0,0,0,89.42,44.56V24.41A17.52,17.52,0,0,0,71.89,6.89ZM44.51,40.28V23.94a1.75,1.75,0,0,1,2.74-1.44l12,8.29a1.75,1.75,0,0,1,0,2.89l-12,8A1.75,1.75,0,0,1,44.51,40.28Z" transform="translate(-13.81 -6.39)"/></svg>